<?xml version="1.0" encoding="UTF-8"?>
<svg width="32px" height="32px" viewBox="0 0 32 32" version="1.1" xmlns="http://www.w3.org/2000/svg" xmlns:xlink="http://www.w3.org/1999/xlink">
    <!-- Generator: Sketch 51.2 (57519) - http://www.bohemiancoding.com/sketch -->
    <title>codepen</title>
    <desc>Created with Sketch.</desc>
    <defs></defs>
    <g id="Page-1" stroke="none" stroke-width="1" fill="none" fill-rule="evenodd">
        <g id="codepen" fill="#5F6379" fill-rule="nonzero">
            <polygon id="Shape" points="7.9 14.6 7.9 17.4 10 16"></polygon>
            <polygon id="Shape" points="15.2 12.6 15.2 8.6 8.6 13 11.5 15"></polygon>
            <polygon id="Shape" points="23.4 13 16.8 8.6 16.8 12.6 20.5 15"></polygon>
            <polygon id="Shape" points="8.6 19 15.2 23.4 15.2 19.4 11.5 17"></polygon>
            <polygon id="Shape" points="16.8 19.4 16.8 23.4 23.4 19 20.5 17"></polygon>
            <polygon id="Shape" points="16 14 13 16 16 18 19 16"></polygon>
            <path d="M16,0.2 C7.3,0.2 0.2,7.3 0.2,16 C0.2,24.7 7.3,31.8 16,31.8 C24.7,31.8 31.8,24.7 31.8,16 C31.8,7.3 24.7,0.2 16,0.2 Z M25.8,19 C25.8,19 25.8,19.1 25.8,19.1 C25.8,19.1 25.8,19.1 25.8,19.1 C25.8,19.1 25.8,19.1 25.8,19.2 C25.8,19.2 25.8,19.2 25.8,19.2 C25.8,19.2 25.8,19.2 25.8,19.3 C25.8,19.3 25.8,19.3 25.8,19.3 C25.8,19.3 25.8,19.3 25.8,19.4 C25.8,19.4 25.8,19.4 25.8,19.4 C25.8,19.4 25.8,19.4 25.8,19.5 C25.8,19.5 25.8,19.5 25.8,19.5 C25.8,19.5 25.8,19.5 25.8,19.5 C25.8,19.5 25.8,19.5 25.8,19.5 C25.8,19.5 25.8,19.5 25.8,19.5 C25.8,19.5 25.8,19.5 25.8,19.5 C25.8,19.5 25.8,19.5 25.8,19.5 L16.9,25.5 C16.8,25.6 16.6,25.6 16.4,25.6 C16.2,25.6 16.1,25.6 15.9,25.5 L7,19.5 C7,19.5 7,19.5 7,19.5 C7,19.5 7,19.5 7,19.5 C7,19.5 7,19.5 7,19.5 C7,19.5 7,19.5 7,19.5 C7,19.5 7,19.5 7,19.5 C7,19.5 7,19.5 7,19.5 C7,19.5 7,19.5 7,19.4 C7,19.4 7,19.4 7,19.4 C7,19.4 7,19.4 7,19.3 C7,19.3 7,19.3 7,19.3 C7,19.3 7,19.3 7,19.2 C7,19.2 7,19.2 7,19.2 C7,19.2 7,19.2 7,19.1 C7,19.1 7,19.1 7,19.1 C7,19.1 7,19 7,19 L7,13 C7,13 7,12.9 7,12.9 C7,12.9 7,12.9 7,12.9 C7,12.9 7,12.9 7,12.8 C7,12.8 7,12.8 7,12.8 C7,12.8 7,12.8 7,12.7 C7,12.7 7,12.7 7,12.7 C7,12.7 7,12.7 7,12.6 C7,12.6 7,12.6 7,12.6 C7,12.6 7,12.6 7,12.5 C7,12.5 7,12.5 7,12.5 C7,12.5 7,12.5 7,12.5 C7,12.5 7,12.5 7,12.5 C7,12.5 7,12.5 7,12.5 C7,12.5 7,12.5 7,12.5 C7,12.5 7,12.5 7,12.5 L15.9,6.5 C16.2,6.3 16.5,6.3 16.8,6.5 L25.7,12.5 C25.7,12.5 25.7,12.5 25.7,12.5 C25.7,12.5 25.7,12.5 25.7,12.5 C25.7,12.5 25.7,12.5 25.7,12.5 C25.7,12.5 25.7,12.5 25.7,12.5 C25.7,12.5 25.7,12.5 25.7,12.5 C25.7,12.5 25.7,12.5 25.7,12.5 C25.7,12.5 25.7,12.5 25.7,12.6 C25.7,12.6 25.7,12.6 25.7,12.6 C25.7,12.6 25.7,12.6 25.7,12.7 C25.7,12.7 25.7,12.7 25.7,12.7 C25.7,12.7 25.7,12.7 25.7,12.8 C25.7,12.8 25.7,12.8 25.7,12.8 C25.7,12.8 25.7,12.8 25.7,12.9 C25.7,12.9 25.7,12.9 25.7,12.9 C25.7,12.9 25.7,13 25.7,13 L25.7,19 L25.8,19 Z" id="Shape"></path>
            <polygon id="Shape" points="24.1 17.4 24.1 14.6 22 16"></polygon>
        </g>
    </g>
</svg>