<?xml version="1.0" encoding="UTF-8"?>
<svg width="32px" height="32px" viewBox="0 0 32 32" version="1.1" xmlns="http://www.w3.org/2000/svg" xmlns:xlink="http://www.w3.org/1999/xlink">
    <!-- Generator: Sketch 45.2 (43514) - http://www.bohemiancoding.com/sketch -->
    <title>dribbble</title>
    <desc>Created with Sketch.</desc>
    <defs></defs>
    <g id="Page-1" stroke="none" stroke-width="1" fill="none" fill-rule="evenodd">
        <g id="dribbble" fill-rule="nonzero">
            <path d="M15.75,1.0828125 C23.821875,1.0828125 30.4171875,7.678125 30.4171875,15.75 C30.4171875,23.821875 23.821875,30.4171875 15.75,30.4171875 C7.678125,30.4171875 1.0828125,23.821875 1.0828125,15.75 C1.0828125,7.678125 7.678125,1.0828125 15.75,1.0828125 Z" id="Shape" fill-opacity="0.7" fill="#767B93"></path>
            <path d="M15.75,31.5 C7.0875,31.5 0,24.4125 0,15.75 C0,7.0875 7.0875,0 15.75,0 C24.4125,0 31.5,7.0875 31.5,15.75 C31.5,24.4125 24.4125,31.5 15.75,31.5 L15.75,31.5 Z M29.0390625,17.915625 C28.546875,17.71875 24.9046875,16.6359375 20.671875,17.325 C22.44375,22.1484375 23.1328125,26.0859375 23.23125,26.8734375 C26.2828125,24.9046875 28.4484375,21.65625 29.0390625,17.915625 Z M20.9671875,28.153125 C20.7703125,26.971875 19.9828125,22.8375 18.1125,17.915625 C18.1125,17.915625 18.0140625,17.915625 18.0140625,17.915625 C10.434375,20.5734375 7.678125,25.790625 7.48125,26.2828125 C9.7453125,28.0546875 12.6,29.1375 15.75,29.1375 C17.6203125,29.2359375 19.3921875,28.8421875 20.9671875,28.153125 L20.9671875,28.153125 Z M5.709375,24.80625 C6.0046875,24.3140625 9.7453125,18.2109375 16.6359375,15.946875 C16.8328125,15.8484375 17.0296875,15.8484375 17.128125,15.75 C16.8328125,14.9625 16.4390625,14.175 16.0453125,13.4859375 C9.3515625,15.4546875 2.8546875,15.35625 2.165625,15.35625 C2.165625,15.4546875 2.165625,15.6515625 2.165625,15.75 C2.2640625,19.1953125 3.6421875,22.3453125 5.709375,24.80625 L5.709375,24.80625 Z M2.559375,12.99375 C3.15,12.99375 8.6625,12.99375 14.9625,11.3203125 C12.6984375,7.3828125 10.3359375,4.0359375 9.9421875,3.54375 C6.3,5.4140625 3.4453125,8.859375 2.559375,12.99375 Z M12.6,2.75625 C12.99375,3.2484375 15.4546875,6.5953125 17.6203125,10.63125 C22.44375,8.859375 24.4125,6.103125 24.7078125,5.8078125 C22.3453125,3.740625 19.1953125,2.4609375 15.75,2.4609375 C14.6671875,2.3625 13.584375,2.4609375 12.6,2.75625 Z M26.184375,7.284375 C25.8890625,7.678125 23.625,10.5328125 18.703125,12.6 C18.9984375,13.190625 19.29375,13.8796875 19.5890625,14.56875 C19.6875,14.765625 19.7859375,15.0609375 19.884375,15.2578125 C24.4125,14.6671875 28.8421875,15.6515625 29.2359375,15.6515625 C29.1375,12.5015625 28.0546875,9.5484375 26.184375,7.284375 L26.184375,7.284375 Z" id="Shape" fill="#5E6278"></path>
        </g>
    </g>
</svg>