<?xml version="1.0" encoding="utf-8"?>
<!-- Generator: Adobe Illustrator 21.0.0, SVG Export Plug-In . SVG Version: 6.00 Build 0)  -->
<svg version="1.1" id="Layer_1" xmlns="http://www.w3.org/2000/svg" xmlns:xlink="http://www.w3.org/1999/xlink" x="0px" y="0px"
	 viewBox="0 0 256 256" style="enable-background:new 0 0 256 256;" xml:space="preserve">
<style type="text/css">
	.st0{fill:#FFFFFF;}
	.st1{fill:#2FABE2;}
</style>
<circle class="st0" cx="128" cy="128" r="128"/>
<path class="st1" d="M213.5,151.3c-0.6-0.6-1.3-1.2-1.7-1.2c-0.4,0-3,2.3-5.6,5c-8.5,8.7-19.3,12.4-36.3,12.4
	c-10.3,0-18.6-1.2-40.1-5.5c-8.5-1.7-18.8-3.4-22.9-3.6c-4.1-0.3-9.2-1.2-11.5-1.9c-2.1-0.8-6.4-1.9-9.5-2.4
	c-6.6-1.1-9.6-2.2-10.2-3.8c-0.8-2,1-4.1,3.7-4.5c10.7-1.5,13.9-2.2,17.8-4.1c5.3-2.6,11.1-8.2,13.7-13c2.7-5.2,3.1-15.1,0.7-19.6
	c-0.9-1.9-1.6-3.5-1.4-3.6c0.2-0.2,1.2-0.5,2.3-0.8c1.5-0.4,2.4-0.2,3.2,0.8c4,5,5.5,6.1,7.5,5.6c1.7-0.5,2-0.3,1.6,0.9
	c-1.3,4.6-5.2,29.9-5.2,34.3c0,6,1.7,9.2,6.3,12.4c2.4,1.7,3.5,1.8,9.1,1.6c6.9-0.2,11.2-1.9,16-6.1c2.6-2.2,2.6-2.3,1.4-5.1
	c-0.6-1.6-1.4-2.8-1.7-2.8c-0.3,0-1.7,0.9-3.2,2.1c-1.9,1.4-3.4,1.9-5.3,1.7c-2.4-0.2-2.6-0.4-2.8-3.6c-0.2-2.7,3.7-27.3,5.8-36.3
	c0.4-1.7,0.9-1.8,5.9-1.8c5.4,0,5.5,0.1,5.1,1.8c-1.5,6.3-4.3,25.3-4.3,28.6c0,13,7.9,21.3,21.5,22.3c13,0.9,24.9-5.1,32.6-16.8
	c4.7-7,6.2-12.2,6.2-21.3c0-9.1-1.3-13-6.2-18.4c-5.5-6.1-15.6-8.7-23.8-6.2c-2.1,0.6-4,1.1-4,1c-0.1-0.1,1.7-10.2,3.8-22.4
	c2.2-12.2,3.8-22.8,3.6-23.4c-0.3-0.9-2.9-0.7-14.9,0.6l-14.5,1.6l-0.6,2.4c-0.9,3.2-0.3,4.3,2.1,4.3c1.2,0,2.8,0.4,3.6,0.8
	c2.1,1.2,2,5.5-1,22.7l-2.4,14.5h-5.5c-3.8,0-5.4-0.3-5.4-1c0-0.6,0.9-6.1,2-12.4c1.1-6.2,1.8-11.9,1.7-12.4c-0.3-0.8-2.8-1-9.5-1
	c-7.9,0-9.2,0.2-9.8,1.4c-0.4,0.7-1.6,6.2-2.5,12.2l-1.8,10.7l-1.9-1.2c-2.8-1.9-11.4-1.1-17.2,1.6c-4.7,2.1-4.8,2.2-7.9,0.9
	c-4.6-2.1-13.7-1.8-19.6,0.4c-17.1,6.6-24.7,26.1-14.7,37.4c3.3,3.9,3.6,4.5,2.1,4.5c-1.8,0-7.6,4.6-9.2,7.3
	c-1.9,3.1-2.1,9.7-0.4,12.2c1.2,1.7,1.1,1.8-2.7,3.8c-9.2,4.6-13.9,11.5-13.4,19.5c0.2,3.6,0.9,5.2,2.7,7.4c3.2,4,9.7,7.5,17.7,9.6
	c20,5.1,39.6-1.5,46.7-16c2.1-4.3,2.4-5.7,2.1-9.8l-0.2-4.8h3.2c1.8,0,7.3,0.7,12.2,1.6c25.6,4.6,43.1,5.5,55.6,2.8
	c12.6-2.6,23.9-9.8,29.6-18.6C213.9,153.2,214.3,152.3,213.5,151.3z M171.6,137c0.4-3,1.6-10.1,2.6-15.9c2.1-11.9,3.1-13.4,8.3-14.1
	c7-0.9,9.3,3.4,8.6,15.9c-0.8,13.4-5.1,25.1-10,27.7C174,154.2,169.9,148.3,171.6,137z M85.4,109.2c2.8-5.5,7.3-5.4,8.5,0.3
	c1.1,5.9-2.8,22.8-6.1,26.2c-3.4,3.7-7,0.9-7-5.4C80.7,125.3,83.4,113.1,85.4,109.2z M83,193.2c-1.9,0.3-4.2,0.6-5.1,0.7
	c-2.9,0.4-9.8-0.9-12.8-2.4c-5.4-2.8-7.3-7.3-4.9-11.8c1.7-3.2,10-6.8,16.8-7.3c6.6-0.4,15.7,1.8,18,4.3
	C100.3,182.6,93.5,191.8,83,193.2z"/>
</svg>
