<?xml version="1.0" encoding="utf-8"?>
<!-- Generator: Adobe Illustrator 21.0.0, SVG Export Plug-In . SVG Version: 6.00 Build 0)  -->
<svg version="1.1" id="Layer_1" xmlns="http://www.w3.org/2000/svg" xmlns:xlink="http://www.w3.org/1999/xlink" x="0px" y="0px"
	 viewBox="0 0 48.8 28" style="enable-background:new 0 0 48.8 28;" xml:space="preserve">
<style type="text/css">
	.st0{fill:#5990CC;}
	.st1{fill:#EA7467;}
	.st2{fill:#E7B745;}
	.st3{fill:#7FC472;}
	.st4{fill:#EDEEF4;}
</style>
<g id="Page-1_1_">
	<g id="ipaintcode_1_">
		<g id="Group_2_">
			<g id="Bristles_1_" transform="translate(104.000000, 0.000000)">
				<path id="Shape_18_" class="st0" d="M-74.3,4.1c0,0.4-0.3,0.7-0.8,0.7h-3.3c-0.4,0-0.8-0.3-0.8-0.7V0.7c0-0.4,0.3-0.7,0.8-0.7
					h3.3c0.4,0,0.8,0.3,0.8,0.7V4.1z"/>
				<path id="Shape_17_" class="st0" d="M-55.3,4.1c0,0.4-0.3,0.7-0.7,0.7h-14.7c-0.4,0-0.7-0.3-0.7-0.7V0.7c0-0.4,0.3-0.7,0.7-0.7
					H-56c0.4,0,0.7,0.3,0.7,0.7V4.1z"/>
				<path id="Shape_16_" class="st1" d="M-65.9,11.8c0,0.4-0.3,0.7-0.7,0.7h-11.7c-0.4,0-0.7-0.3-0.7-0.7V8.5c0-0.4,0.3-0.7,0.7-0.7
					h11.7c0.4,0,0.7,0.3,0.7,0.7V11.8z"/>
				<path id="Shape_15_" class="st1" d="M-55.2,11.8c0,0.4-0.3,0.7-0.7,0.7h-6.3c-0.4,0-0.7-0.3-0.7-0.7V8.5c0-0.4,0.3-0.7,0.7-0.7
					h6.3c0.4,0,0.7,0.3,0.7,0.7V11.8z"/>
				<path id="Shape_14_" class="st2" d="M-71.3,19.6c0,0.4-0.3,0.7-0.7,0.7h-6.3c-0.4,0-0.7-0.3-0.7-0.7v-3.4c0-0.4,0.3-0.7,0.7-0.7
					h6.3c0.4,0,0.7,0.3,0.7,0.7V19.6z"/>
				<path id="Shape_13_" class="st2" d="M-55.3,19.6c0,0.4-0.3,0.7-0.7,0.7h-11.7c-0.4,0-0.7-0.3-0.7-0.7v-3.4
					c0-0.4,0.3-0.7,0.7-0.7H-56c0.4,0,0.7,0.3,0.7,0.7V19.6z"/>
				<path id="Shape_12_" class="st3" d="M-63,27.3c0,0.4-0.3,0.7-0.7,0.7h-14.7c-0.4,0-0.7-0.3-0.7-0.7v-3.4c0-0.4,0.3-0.7,0.7-0.7
					h14.7c0.4,0,0.7,0.3,0.7,0.7L-63,27.3L-63,27.3z"/>
				<path id="Shape_11_" class="st3" d="M-55.3,27.3c0,0.4-0.3,0.7-0.8,0.7h-3.3c-0.4,0-0.8-0.3-0.8-0.7v-3.4c0-0.4,0.3-0.7,0.8-0.7
					h3.3c0.4,0,0.8,0.3,0.8,0.7V27.3z"/>
			</g>
			<path id="Handle_1_" class="st4" d="M21.3,0h-5.7c-1,0-1.8,0.8-1.8,1.8v8c0,0.4-0.3,0.7-0.7,0.7H1.8c-1,0-1.8,0.8-1.8,1.8v3.2
				c0,1,0.8,1.8,1.8,1.8h11.2c0.4,0,0.7,0.3,0.7,0.7v8c0,1,0.8,1.8,1.8,1.8h5.7c0.4,0,0.7-0.3,0.7-0.7V0.7C22,0.3,21.7,0,21.3,0z
				 M4.7,14.7c0,0.4-0.3,0.7-0.7,0.7H2.7c-0.4,0-0.7-0.3-0.7-0.7v-1.4c0-0.4,0.3-0.7,0.7-0.7H4c0.4,0,0.7,0.3,0.7,0.7V14.7z"/>
		</g>
	</g>
</g>
</svg>
