<?xml version="1.0" encoding="utf-8"?>
<svg version="1.1" id="Layer_1" xmlns="http://www.w3.org/2000/svg" xmlns:xlink="http://www.w3.org/1999/xlink" x="0px" y="0px"
	 viewBox="0 0 734.5 117.4" style="enable-background:new 0 0 734.5 117.4;" xml:space="preserve">
<style type="text/css">
	.st0{fill:#5E6278;}
	.st1{fill-rule:evenodd;clip-rule:evenodd;fill:#5E6278;}
	.st2{fill-rule:evenodd;clip-rule:evenodd;fill:#5A91CC;}
	.st3{fill-rule:evenodd;clip-rule:evenodd;fill:#EB7468;}
	.st4{fill-rule:evenodd;clip-rule:evenodd;fill:#E9B846;}
	.st5{fill-rule:evenodd;clip-rule:evenodd;fill:#7EC571;}
</style>
<g>
	<g id="E_1_">
		<g id="E">
			<path class="st0" d="M734.5,38.1V44c0,1.7-1.4,3.1-3.1,3.1H709c-1.7,0-3.1,1.4-3.1,3.1v23.9c0,1.7,1.4,3.1,3.1,3.1h22.4
				c1.7,0,3.1,1.4,3.1,3.1v5.9c0,1.7-1.4,3.1-3.1,3.1h-35.6c-1.7,0-3.1-1.4-3.1-3.1V38.1c0-1.7,1.4-3.1,3.1-3.1h35.6
				C733.1,34.9,734.5,36.4,734.5,38.1z"/>
		</g>
		<path id="e" class="st1" d="M730,68.9h-13.3c-1.3,0-2.4-1.1-2.4-2.4V58c0-1.3,1.1-2.4,2.4-2.4H730c1.3,0,2.4,1.1,2.4,2.4v8.4
			C732.4,67.8,731.4,68.9,730,68.9z"/>
	</g>
	<g id="D">
		<path class="st0" d="M683.8,62.2c0,15.9-11.8,27.4-28.8,27.4h-21c-1.7,0-3.1-1.4-3.1-3.1V38.2c0-1.7,1.4-3.1,3.1-3.1l21.1-0.1
			C672.9,34.9,683.8,46.4,683.8,62.2z M647.1,77.4l7.9,0c8.3,0,15.4-6.5,15.5-14.8c0.2-10.1-6.1-15.4-15.5-15.4h-7.9
			c-1.7,0-3.1,1.4-3.1,3.1v23.9C643.9,76,645.3,77.4,647.1,77.4z"/>
	</g>
	<g id="O">
		<path id="O_1_" class="st1" d="M594.1,34c-15.4,0-27.7,12.8-27.7,28.3c0,15.6,12.3,28.3,27.7,28.3c15.3,0,27.7-12.7,27.7-28.3
			C621.9,46.8,609.4,34,594.1,34z M594.1,78.3c-8.8,0-15.9-7.2-15.9-16.1c0-8.8,7.1-16,15.9-16c8.6,0,15.7,7.2,15.7,16
			C609.9,71.2,602.8,78.3,594.1,78.3z"/>
		<path id="o" class="st1" d="M598.2,68.9h-8.1c-1.3,0-2.4-1.1-2.4-2.4V58c0-1.3,1.1-2.4,2.4-2.4h8.1c1.3,0,2.4,1.1,2.4,2.4v8.4
			C600.6,67.8,599.5,68.9,598.2,68.9z"/>
	</g>
	<path id="C" class="st1" d="M551.8,70.7c-0.8-0.5-2-0.3-2.6,0.4c0,0-6.3,7.1-12.9,7.1c-9.4,0-16-7.6-16-16.3c0-9,6.6-16,16-16
		c6.8,0,13.1,7.1,13.1,7.1c0.7,0.7,1.9,0.8,2.6,0.4l7.4-4.4c1.2-0.7,1.5-2.3,0.7-3.5c-5.1-6.9-13.4-11.4-23.8-11.4
		c-16.8,0-29.1,12.7-29.1,27.9c0,16.1,12.3,28.7,29.1,28.7c10.3,0,18.6-5,23.7-12c0.8-1.2,0.5-2.8-0.7-3.5L551.8,70.7z"/>
	<path id="T" class="st1" d="M500.9,34.9h-44.9c-1.7,0-3.1,1.4-3.1,3.1V44c0,1.7,1.4,3.1,3.1,3.1h12.8c1.7,0,3.1,1.4,3.1,3.1v36.2
		c0,1.7,1.4,3.1,3.1,3.1h6.8c1.7,0,3.1-1.4,3.1-3.1V50.3c0-1.7,1.4-3.1,3.1-3.1h12.8c1.7,0,3.1-1.4,3.1-3.1v-5.9
		C504,36.3,502.6,34.9,500.9,34.9z"/>
	<path id="N" class="st1" d="M443.1,38.1c0-1.7-1.4-3.1-3.1-3.1h-6.8c-1.7,0-3.1,1.4-3.1,3.1v30.3l-22-32c-0.5-0.8-1.7-1.4-2.6-1.4
		h-8.2c-1.7,0-3.1,1.4-3.1,3.1v48.3c0,1.7,1.4,3.1,3.1,3.1h6.8c1.7,0,3.1-1.4,3.1-3.1V56.2l21.9,32.1c0.5,0.8,1.7,1.4,2.6,1.4h8.3
		c1.7,0,3.1-1.4,3.1-3.1V38.1z"/>
	<path id="I" class="st1" d="M380.5,89.6h-8.1c-1.3,0-2.4-1.1-2.4-2.4V37.4c0-1.3,1.1-2.4,2.4-2.4h8.1c1.3,0,2.4,1.1,2.4,2.4v49.7
		C382.9,88.5,381.8,89.6,380.5,89.6z"/>
	<g id="A">
		<path class="st0" d="M345.8,79.9h-21.3c-1.3,0-2.4,0.8-2.9,1.9l-2.5,5.8c-0.5,1.2-1.6,1.9-2.9,1.9h-7.1c-2.3,0-3.8-2.3-2.9-4.4
			l20.7-48.3c0.5-1.2,1.6-1.9,2.9-1.9h10.6c1.3,0,2.4,0.7,2.9,1.9L364,85.2c0.9,2.1-0.6,4.4-2.9,4.4h-7.2c-1.3,0-2.4-0.8-2.9-2
			l-2.3-5.7C348.3,80.7,347.1,79.9,345.8,79.9z M342.9,66.9l-6.3-16.5c-0.5-1.3-2.4-1.4-2.9,0l-6.4,16.5c-0.4,1,0.4,2.1,1.5,2.1
			h12.6C342.6,69.1,343.3,68,342.9,66.9z"/>
	</g>
	<path id="P" class="st1" d="M288.2,34.9h-21.7c-1.7,0-3.1,1.4-3.1,3.1v48.3c0,1.7,1.4,3.1,3.1,3.1h6.8c1.7,0,3.1-1.4,3.1-3.1v-6.1
		c0-1.7,1.4-3.1,3.1-3.1h8.6c13.8,0,20.5-10.4,20.5-21.2C308.6,45.4,302,34.9,288.2,34.9z M286.7,65.1h-7.1c-1.7,0-3.1-1.4-3.1-3.1
		V50.3c0-1.7,1.4-3.1,3.1-3.1h7.1c5.2,0.1,8.8,3,8.8,8.8C295.5,61.9,291.9,65.1,286.7,65.1z"/>
	<g id="i_2_">
		<path id="i_1_" class="st1" d="M251,59h-8.1c-1.3,0-2.4-1.1-2.4-2.4v-8.4c0-1.3,1.1-2.4,2.4-2.4h8.1c1.3,0,2.4,1.1,2.4,2.4v8.4
			C253.5,57.9,252.4,59,251,59z"/>
		<path id="i" class="st1" d="M251,89.6h-8.1c-1.3,0-2.4-1.1-2.4-2.4V67.5c0-1.3,1.1-2.4,2.4-2.4h8.1c1.3,0,2.4,1.1,2.4,2.4v19.6
			C253.5,88.5,252.4,89.6,251,89.6z"/>
	</g>
</g>
<g>
	<g id="Bristles">
		<path class="st2" d="M124.7,17.2c0,1.7-1.4,3.1-3.2,3.1h-13.9c-1.7,0-3.2-1.4-3.2-3.1V3.1c0-1.7,1.4-3.1,3.2-3.1h13.9
			c1.7,0,3.2,1.4,3.2,3.1V17.2z"/>
		<path class="st2" d="M204.4,17.2c0,1.7-1.4,3.1-3.1,3.1h-61.5c-1.7,0-3.1-1.4-3.1-3.1V3.1c0-1.7,1.4-3.1,3.1-3.1h61.5
			c1.7,0,3.1,1.4,3.1,3.1V17.2z"/>
		<path class="st3" d="M159.6,49.6c0,1.7-1.4,3.1-3.1,3.1h-49c-1.7,0-3.1-1.4-3.1-3.1V35.5c0-1.7,1.4-3.1,3.1-3.1h49
			c1.7,0,3.1,1.4,3.1,3.1V49.6z"/>
		<path class="st3" d="M204.5,49.6c0,1.7-1.4,3.1-3.1,3.1h-26.6c-1.7,0-3.1-1.4-3.1-3.1V35.5c0-1.7,1.4-3.1,3.1-3.1h26.6
			c1.7,0,3.1,1.4,3.1,3.1V49.6z"/>
		<path class="st4" d="M137.2,82c0,1.7-1.4,3.1-3.1,3.1h-26.6c-1.7,0-3.1-1.4-3.1-3.1V67.9c0-1.7,1.4-3.1,3.1-3.1h26.6
			c1.7,0,3.1,1.4,3.1,3.1V82z"/>
		<path class="st4" d="M204.4,82c0,1.7-1.4,3.1-3.1,3.1h-49c-1.7,0-3.1-1.4-3.1-3.1V67.9c0-1.7,1.4-3.1,3.1-3.1h49
			c1.7,0,3.1,1.4,3.1,3.1V82z"/>
		<path class="st5" d="M172,114.4c0,1.7-1.4,3.1-3.1,3.1h-61.5c-1.7,0-3.1-1.4-3.1-3.1v-14.1c0-1.7,1.4-3.1,3.1-3.1H169
			c1.7,0,3.1,1.4,3.1,3.1V114.4z"/>
		<path class="st5" d="M204.4,114.4c0,1.7-1.4,3.1-3.2,3.1h-13.9c-1.7,0-3.2-1.4-3.2-3.1v-14.1c0-1.7,1.4-3.1,3.2-3.1h13.9
			c1.7,0,3.2,1.4,3.2,3.1V114.4z"/>
	</g>
	<path id="Handle" class="st1" d="M89.2,0H65.4c-4.2,0-7.6,3.4-7.6,7.6V41c0,1.7-1.4,3.1-3.1,3.1H7.7c-4.2,0-7.7,3.4-7.7,7.7v13.6
		c0,4.2,3.4,7.7,7.7,7.7h47.1c1.7,0,3.1,1.4,3.1,3.1v33.7c0,4.2,3.4,7.6,7.6,7.6h23.8c1.7,0,3.1-1.4,3.1-3.1V3.1
		C92.3,1.4,90.9,0,89.2,0z M19.7,61.5c0,1.7-1.4,3.1-3.1,3.1h-5.4c-1.7,0-3.1-1.4-3.1-3.1v-5.9c0-1.7,1.4-3.1,3.1-3.1h5.4
		c1.7,0,3.1,1.4,3.1,3.1V61.5z"/>
</g>
</svg>
