<?xml version="1.0" encoding="utf-8"?>
<!-- Generator: Adobe Illustrator 21.0.0, SVG Export Plug-In . SVG Version: 6.00 Build 0)  -->
<svg version="1.1" id="Layer_1" xmlns="http://www.w3.org/2000/svg" xmlns:xlink="http://www.w3.org/1999/xlink" x="0px" y="0px"
	 viewBox="0 0 256 256" style="enable-background:new 0 0 256 256;" xml:space="preserve">
<style type="text/css">
	.st0{fill:#FFFFFF;}
	.st1{fill:#5991CD;}
	.st2{fill:#EB7468;}
	.st3{fill:#E9B845;}
	.st4{fill:#7FC572;}
	.st5{fill:#5F6379;}
</style>
<circle class="st0" cx="128" cy="128" r="128"/>
<g>
	<g id="Bristles">
		<path class="st1" d="M138.9,93c0,1.4-1.2,2.6-2.7,2.6h-11.7c-1.4,0-2.7-1.2-2.7-2.6V81.1c0-1.4,1.2-2.6,2.7-2.6h11.7
			c1.4,0,2.7,1.2,2.7,2.6V93z"/>
		<path class="st1" d="M206.2,93c0,1.4-1.2,2.6-2.6,2.6h-51.9c-1.4,0-2.6-1.2-2.6-2.6V81.1c0-1.4,1.2-2.6,2.6-2.6h51.9
			c1.4,0,2.6,1.2,2.6,2.6V93z"/>
		<path class="st2" d="M168.4,120.3c0,1.4-1.2,2.6-2.6,2.6h-41.3c-1.4,0-2.6-1.2-2.6-2.6v-11.9c0-1.4,1.2-2.6,2.6-2.6h41.3
			c1.4,0,2.6,1.2,2.6,2.6V120.3z"/>
		<path class="st2" d="M206.2,120.3c0,1.4-1.2,2.6-2.6,2.6h-22.4c-1.4,0-2.6-1.2-2.6-2.6v-11.9c0-1.4,1.2-2.6,2.6-2.6h22.4
			c1.4,0,2.6,1.2,2.6,2.6V120.3z"/>
		<path class="st3" d="M149.5,147.6c0,1.4-1.2,2.6-2.6,2.6h-22.4c-1.4,0-2.6-1.2-2.6-2.6v-11.9c0-1.4,1.2-2.6,2.6-2.6h22.4
			c1.4,0,2.6,1.2,2.6,2.6V147.6z"/>
		<path class="st3" d="M206.2,147.6c0,1.4-1.2,2.6-2.6,2.6h-41.3c-1.4,0-2.6-1.2-2.6-2.6v-11.9c0-1.4,1.2-2.6,2.6-2.6h41.3
			c1.4,0,2.6,1.2,2.6,2.6V147.6z"/>
		<path class="st4" d="M178.8,174.9c0,1.4-1.2,2.6-2.6,2.6h-51.9c-1.4,0-2.6-1.2-2.6-2.6V163c0-1.4,1.2-2.6,2.6-2.6h52
			c1.4,0,2.6,1.2,2.6,2.6L178.8,174.9L178.8,174.9z"/>
		<path class="st4" d="M206.2,174.9c0,1.4-1.2,2.6-2.7,2.6h-11.7c-1.4,0-2.7-1.2-2.7-2.6V163c0-1.4,1.2-2.6,2.7-2.6h11.7
			c1.4,0,2.7,1.2,2.7,2.6V174.9z"/>
	</g>
	<path id="Handle" class="st5" d="M109,78.4H88.9c-3.5,0-6.4,2.9-6.4,6.4V113c0,1.4-1.2,2.6-2.6,2.6H40.2c-3.5,0-6.5,2.9-6.5,6.5
		v11.5c0,3.5,2.9,6.5,6.5,6.5H80c1.4,0,2.6,1.2,2.6,2.6v28.4c0,3.5,2.9,6.4,6.4,6.4h20.1c1.4,0,2.6-1.2,2.6-2.6V81.1
		C111.6,79.6,110.4,78.4,109,78.4z M50.4,130.3c0,1.4-1.2,2.6-2.6,2.6h-4.6c-1.4,0-2.6-1.2-2.6-2.6v-5c0-1.4,1.2-2.6,2.6-2.6h4.6
		c1.4,0,2.6,1.2,2.6,2.6V130.3z"/>
</g>
</svg>
