<?xml version="1.0" encoding="UTF-8"?>
<svg width="28px" height="32px" viewBox="0 0 28 32" version="1.1" xmlns="http://www.w3.org/2000/svg" xmlns:xlink="http://www.w3.org/1999/xlink">
    <!-- Generator: Sketch 41 (35326) - http://www.bohemiancoding.com/sketch -->
    <title>resume</title>
    <desc>Created with Sketch.</desc>
    <defs></defs>
    <g id="Page-1" stroke="none" stroke-width="1" fill="none" fill-rule="evenodd">
        <g id="resume" fill="#5E6278">
            <path d="M26.681,7.159 C25.987,6.212 25.019,5.106 23.957,4.043 C22.895,2.98 21.788,2.013 20.841,1.319 C19.229,0.137 18.448,0 18,0 L2.5,0 C1.122,0 0,1.121 0,2.5 L0,29.5 C0,30.878 1.122,32 2.5,32 L25.5,32 C26.878,32 28,30.878 28,29.5 L28,10 C28,9.552 27.863,8.77 26.681,7.159 Z M22.543,5.457 C23.502,6.416 24.255,7.282 24.811,8 L20,8 L20,3.189 C20.718,3.745 21.584,4.498 22.543,5.457 Z M26,29.5 C26,29.771 25.771,30 25.5,30 L2.5,30 C2.229,30 2,29.771 2,29.5 L2,2.5 C2,2.229 2.229,2 2.5,2 L18,2 L18,9 C18,9.552 18.448,10 19,10 L26,10 L26,29.5 Z" id="Shape"></path>
            <path d="M21,26 L7,26 C6.448,26 6,25.552 6,25 C6,24.448 6.448,24 7,24 L21,24 C21.552,24 22,24.448 22,25 C22,25.552 21.552,26 21,26 Z" id="Shape"></path>
            <path d="M21,22 L7,22 C6.448,22 6,21.552 6,21 C6,20.448 6.448,20 7,20 L21,20 C21.552,20 22,20.448 22,21 C22,21.552 21.552,22 21,22 Z" id="Shape"></path>
            <path d="M21,18 L7,18 C6.448,18 6,17.552 6,17 C6,16.448 6.448,16 7,16 L21,16 C21.552,16 22,16.448 22,17 C22,17.552 21.552,18 21,18 Z" id="Shape"></path>
        </g>
    </g>
</svg>