<?xml version="1.0" encoding="UTF-8"?>
<svg width="32px" height="32px" viewBox="0 0 32 32" version="1.1" xmlns="http://www.w3.org/2000/svg" xmlns:xlink="http://www.w3.org/1999/xlink">
    <!-- Generator: Sketch 45.2 (43514) - http://www.bohemiancoding.com/sketch -->
    <title>twitter</title>
    <desc>Created with Sketch.</desc>
    <defs></defs>
    <g id="Page-1" stroke="none" stroke-width="1" fill="none" fill-rule="evenodd">
        <g id="twitter" transform="translate(-1.000000, 0.000000)" fill-rule="nonzero">
            <rect id="Rectangle" fill-opacity="0.01" fill="#FFFFFF" x="1" y="0" width="32" height="32"></rect>
            <path d="M33,6.1 C31.8,6.6 30.6,7 29.2,7.1 C30.6,6.3 31.6,5 32.1,3.5 C30.8,4.3 29.4,4.8 27.9,5.1 C26.8,3.8 25,3 23.2,3 C19.6,3 16.6,5.9 16.6,9.6 C16.6,10.1 16.7,10.6 16.8,11.1 C11.3,10.8 6.5,8.2 3.2,4.2 C2.6,5.2 2.3,6.3 2.3,7.5 C2.3,9.8 3.5,11.8 5.2,13 C4.1,13 3.1,12.7 2.2,12.2 L2.2,12.3 C2.2,15.5 4.5,18.1 7.5,18.7 C6.9,18.8 6.4,18.9 5.8,18.9 C5.4,18.9 5,18.9 4.6,18.8 C5.4,21.4 7.9,23.3 10.7,23.4 C8.4,25.2 5.6,26.2 2.5,26.2 C2,26.2 1.5,26.2 0.9,26.1 C3.9,27.9 7.4,29 11.1,29 C23.2,29 29.8,19 29.8,10.3 C29.8,10 29.8,9.7 29.8,9.5 C31,8.6 32.1,7.4 33,6.1 L33,6.1 Z" id="Fill-2" fill="#5E6278"></path>
        </g>
    </g>
</svg>